<mxfile host="app.diagrams.net" modified="2023-04-30T12:45:33.034Z" agent="Mozilla/5.0 (X11; Linux x86_64) AppleWebKit/537.36 (KHTML, like Gecko) Chrome/111.0.0.0 Safari/537.36" version="21.2.3" etag="-YpTfaRcqIfYCMl6jPP6" type="github">
  <diagram name="PÃ¡gina-1" id="Vat3t0lvH9hFSTBkdMAC">
    <mxGraphModel>
      <root>
        <mxCell id="0" />
        <mxCell id="1" parent="0" />
      </root>
    </mxGraphModel>
  </diagram>
</mxfile>
